# xmcd
#
# Track frame offsets: 
#        150
#        13712
#        27831
#        40447
#        55014
#        69048
#        86949
#        97414
#        110568
#        113841
#        133874
#        152561
#        162923
#        176482
#
# Disc length: 2514 seconds
#
# Revision: 5
# Processed by: cddbd v1.5.2PL0 Copyright (c) Steve Scherf et al.
# Submitted via: ExactAudioCopy v0.99pb4
#
DISCID=b909d00e
DTITLE=Frederique Spigt - Engel
DYEAR=1999
DGENRE=Nederlandstalig
TTITLE0=Schimmen
TTITLE1=Mijn Hart Kan Dat Niet Aan
TTITLE2=Rood Voor Mijn Ogen
TTITLE3=Alles Draait Om Jou (2)
TTITLE4=Liefdeselixer (2)
TTITLE5=Engel (2)
TTITLE6=Vogel (2)
TTITLE7=Jij Woont In Mij (2)
TTITLE8=De Latrine (2)
TTITLE9=Hemelse Regen (2)
TTITLE10=Panoramagordijn (2)
TTITLE11=Tango Op Een Dodenmars (2)
TTITLE12=Twee Maal Zoveel Power (2)
TTITLE13=Tobias (2)
EXTD=
EXTT0=
EXTT1=
EXTT2=
EXTT3=
EXTT4=
EXTT5=
EXTT6=
EXTT7=
EXTT8=
EXTT9=
EXTT10=
EXTT11=
EXTT12=
EXTT13=
PLAYORDER=
